{"title":"A Alma do Osso (2004) Cao Guimaraes","uid":7693715,"size":1468790723,"categoryP":"video","categoryS":"movies","magnet":"?xt=urn:btih:f613c81a5ab06e0d6447d9649cb542eaf9a96ec5&amp;dn=A+Alma+do+Osso+%282004%29+Cao+Guimaraes&amp;tr=udp%3A%2F%2Ftracker.openbittorrent.com%3A80&amp;tr=udp%3A%2F%2Fopen.demonii.com%3A1337&amp;tr=udp%3A%2F%2Ftracker.coppersurfer.tk%3A6969&amp;tr=udp%3A%2F%2Fexodus.desync.com%3A6969","seeders":6,"leechers":0,"uploader":"brunicolos","files":4,"time":1349296546,"description":"Documentary about Domingos Albino Ferreira, aka Dominguinhos da Pedra, a man who's been living alone for 41 years in caves in the State of Minas Gerais, Brazil.\n &lt;a href=&quot;\nhttp://www.imdb.com/title/tt0405677/&quot; rel=&quot;nofollow&quot; target=&quot;_NEW&quot;&gt;\nhttp://www.imdb.com/title/tt0405677/&lt;/a&gt;\n\n-----------------------------------------------------------------------------------\n\nSubtitles included (.srt): English / Spanish / Portuguese-BR\n\n-----------------------------------------------------------------------------------\n\nPoster: http://imageshack.us/a/img641/4438/posteralmadoosso.jpg\n\nScreenshots: &lt;a href=&quot;\nhttp://imageshack.us/a/img821/4075/alma2q.jpg&quot; rel=&quot;nofollow&quot; target=&quot;_NEW&quot;&gt;\nhttp://imageshack.us/a/img821/4075/alma2q.jpg&lt;/a&gt; &lt;a href=&quot;\nhttp://imageshack.us/a/img29/9206/alma4f.jpg&quot; rel=&quot;nofollow&quot; target=&quot;_NEW&quot;&gt;\nhttp://imageshack.us/a/img29/9206/alma4f.jpg&lt;/a&gt; &lt;a href=&quot;\nhttp://imageshack.us/a/img690/3390/alma5q.jpg&quot; rel=&quot;nofollow&quot; target=&quot;_NEW&quot;&gt;\nhttp://imageshack.us/a/img690/3390/alma5q.jpg&lt;/a&gt; &lt;a href=&quot;\nhttp://imageshack.us/a/img825/228/alma6.jpg&quot; rel=&quot;nofollow&quot; target=&quot;_NEW&quot;&gt;\nhttp://imageshack.us/a/img825/228/alma6.jpg&lt;/a&gt; &lt;a href=&quot;\nhttp://imageshack.us/a/img22/9934/alma7.jpg&quot; rel=&quot;nofollow&quot; target=&quot;_NEW&quot;&gt;\nhttp://imageshack.us/a/img22/9934/alma7.jpg&lt;/a&gt;\n\n-----------------------------------------------------------------------------------\n\nFormat                                   : AVI\nFormat/Info                              : Audio Video Interleave\nFile size                                : 1.37 GiB\nDuration                                 : 1h 15mn\nOverall bit rate                         : 2 587 Kbps\nWriting application                      : VirtualDubMod 1.5.4.1 (build 2178/release)\nWriting library                          : VirtualDubMod build 2178/release\n\nVideo\nID                                       : 0\nFormat                                   : MPEG-4 Visual\nFormat profile                           : Advanced Simple@L5\nFormat settings, BVOP                    : No\nFormat settings, QPel                    : No\nFormat settings, GMC                     : No warppoints\nFormat settings, Matrix                  : Custom\nCodec ID                                 : XVID\nCodec ID/Hint                            : XviD\nDuration                                 : 1h 15mn\nBit rate                                 : 2 388 Kbps\nWidth                                    : 720 pixels\nHeight                                   : 416 pixels\nDisplay aspect ratio                     : 1.731\nFrame rate                               : 23.976 fps\nColor space                              : YUV\nChroma subsampling                       : 4:2:0\nBit depth                                : 8 bits\nScan type                                : Progressive\nCompression mode                         : Lossy\nBits/(Pixel*Frame)                       : 0.333\nStream size                              : 1.26 GiB (92%)\nWriting library                          : XviD 1.2.1 (UTC 2008-12-04)\n\nAudio\nID                                       : 1\nFormat                                   : AC-3\nFormat/Info                              : Audio Coding 3\nMode extension                           : CM (complete main)\nFormat settings, Endianness              : Big\nCodec ID                                 : 2000\nDuration                                 : 1h 15mn\nBit rate mode                            : Constant\nBit rate                                 : 192 Kbps\nChannel(s)                               : 2 channels\nChannel positions                        : Front: L R\nSampling rate                            : 48.0 KHz\nBit depth                                : 16 bits\nCompression mode                         : Lossy\nStream size                              : 104 MiB (7%)\nAlignment                                : Split accross interleaves\nInterleave, duration                     : 96 ms (2.30 video frames)\nInterleave, preload duration             : 96 ms\n\n","torrent":{"xt":"urn:btih:f613c81a5ab06e0d6447d9649cb542eaf9a96ec5","amp;dn":"A+Alma+do+Osso+%282004%29+Cao+Guimaraes","amp;tr":["udp%3A%2F%2Ftracker.openbittorrent.com%3A80","udp%3A%2F%2Fopen.demonii.com%3A1337","udp%3A%2F%2Ftracker.coppersurfer.tk%3A6969","udp%3A%2F%2Fexodus.desync.com%3A6969"],"infoHash":"f613c81a5ab06e0d6447d9649cb542eaf9a96ec5","infoHashBuffer":{"type":"Buffer","data":[246,19,200,26,90,176,110,13,100,71,217,100,156,181,66,234,249,169,110,197]},"announce":[],"urlList":[]}}